# xmcd CD database file
#
# Track frame offsets:
#	150
#	11475
#	30450
#	46913
#	63488
#	78713
#	90713
#	111938
#	128363
#	151538
#	178313
#	195338
#	208463
#	219263
#	239438
#	251288
#	274613
#	286763
#
# Disc length: 3977 seconds
#
# Revision: 0
# Processed by: cddbd v1.5.1PL2 Copyright (c) Steve Scherf et al.
# Submitted via: CDex 1.51
#
DISCID=ee0f8712
DTITLE=George Melly - The Ultimate Melly
DYEAR=2006
DGENRE=Blues
TTITLE0=Midnight Cannonball
TTITLE1=Kitchen Man
TTITLE2=Everybody loves my baby
TTITLE3=Let's call the whole thing off
TTITLE4=Do you know what it means to miss New Orleans
TTITLE5=Mr Gallagher and Mr Shean
TTITLE6=God bless the child
TTITLE7=Georgia on my mind
TTITLE8=T'aint no sin
TTITLE9=Backwater blues
TTITLE10=Goody goody
TTITLE11=Gone fishin'
TTITLE12=The big butter and egg man
TTITLE13=Winin' boy blues
TTITLE14=Straighten up and fly right
TTITLE15=Roll 'em Pete
TTITLE16=As time goes by
TTITLE17=The trudge
EXTD=YEAR: 2006
EXTT0=
EXTT1=
EXTT2=
EXTT3=
EXTT4=
EXTT5=
EXTT6=
EXTT7=
EXTT8=
EXTT9=
EXTT10=
EXTT11=
EXTT12=
EXTT13=
EXTT14=
EXTT15=
EXTT16=
EXTT17=
PLAYORDER=
